<svg preserveAspectRatio="none" width="100%" height="100%" overflow="visible" style="display: block;" viewBox="0 0 18 14.7275" fill="none" xmlns="http://www.w3.org/2000/svg">
<g id="Camera icon">
<path id="Subtract" d="M15 0C16.6568 1.9327e-07 18 1.34317 18 3V11.7275C17.9999 13.3843 16.6568 14.7275 15 14.7275H3C1.34321 14.7275 0.000111347 13.3843 0 11.7275V3C3.38406e-05 1.34317 1.34317 4.83177e-08 3 0H15ZM9 2.4541C6.28891 2.45411 4.09102 4.65224 4.09082 7.36328C4.09082 10.0745 6.28879 12.2725 9 12.2725C11.7112 12.2725 13.9092 10.0745 13.9092 7.36328C13.909 4.65224 11.7111 2.4541 9 2.4541ZM2.4541 1.63672C2.00257 1.63694 1.63695 2.00257 1.63672 2.4541C1.63672 2.90583 2.00242 3.27224 2.4541 3.27246C2.90597 3.27246 3.27246 2.90597 3.27246 2.4541C3.27222 2.00243 2.90583 1.63672 2.4541 1.63672Z" fill="var(--fill-0, white)"/>
<path id="Subtract_2" d="M8.99986 2.45466C11.7111 2.45466 13.909 4.65262 13.909 7.36384C13.9089 10.075 11.711 12.273 8.99986 12.273C6.28884 12.2729 4.09079 10.0749 4.09068 7.36384C4.09068 4.65272 6.28877 2.45481 8.99986 2.45466ZM8.99986 4.09138C7.19243 4.09143 5.7274 5.5564 5.7274 7.36384C5.72749 9.17121 7.19248 10.6362 8.99986 10.6363C10.8073 10.6363 12.2722 9.17124 12.2723 7.36384C12.2723 5.55636 10.8073 4.09138 8.99986 4.09138Z" fill="var(--fill-0, white)" fill-opacity="0.25"/>
<path id="Subtract_3" d="M8.99979 4.09068C10.8073 4.09068 12.2723 5.55664 12.2723 7.36412C12.2721 9.17147 10.8072 10.6366 8.99979 10.6366C7.19247 10.6365 5.72748 9.17142 5.72733 7.36412C5.72733 5.55669 7.19238 4.09076 8.99979 4.09068ZM8.99979 5.7274C8.09618 5.72755 7.36405 6.46047 7.36405 7.36412C7.36429 8.26757 8.09632 8.99971 8.99979 8.99986C9.90338 8.99986 10.6363 8.26766 10.6365 7.36412C10.6365 6.46038 9.90353 5.7274 8.99979 5.7274Z" fill="var(--fill-0, white)" fill-opacity="0.5"/>
</g>
</svg>
