<svg preserveAspectRatio="none" width="100%" height="100%" overflow="visible" style="display: block;" viewBox="0 0 12.9157 6.6" fill="none" xmlns="http://www.w3.org/2000/svg">
<path id="Vector" d="M0.57072 5.4H2.49048C2.78874 5.4 3.0306 5.66862 3.0306 6C3.0306 6.30768 2.8221 6.5613 2.55342 6.59598L2.49048 6.6H0.57072C0.27246 6.6 0.0305998 6.33138 0.0305998 6C0.0305998 5.69232 0.239099 5.4387 0.507779 5.40402L0.57072 5.4ZM10.1707 5.4H12.0905C12.3887 5.4 12.6306 5.66862 12.6306 6C12.6306 6.30768 12.4221 6.5613 12.1534 6.59598L12.0905 6.6H10.1707C9.87246 6.6 9.6306 6.33138 9.6306 6C9.6306 5.69232 9.8391 5.4387 10.1078 5.40402L10.1707 5.4ZM9.44826 0C10.4884 0 11.4243 0.63174 11.8132 1.59648L12.9157 4.32864C12.7651 4.26246 12.6018 4.21986 12.4305 4.20546L12.3006 4.2H0.3606C0.2364 4.2 0.11562 4.21482 0 4.24272L0.8001 1.76652C1.14006 0.71358 2.12028 0 3.2268 0H9.44826Z" fill="var(--fill-0, #C8C9CA)"/>
</svg>
