<svg preserveAspectRatio="none" width="100%" height="100%" overflow="visible" style="display: block;" viewBox="0 0 14 14" fill="none" xmlns="http://www.w3.org/2000/svg">
<g id="mobile-data">
<path d="M0 10C0 9.44772 0.447715 9 1 9C1.55228 9 2 9.44772 2 10V13C2 13.5523 1.55228 14 1 14C0.447715 14 0 13.5523 0 13V10Z" fill="var(--fill-0, white)" fill-opacity="0.8"/>
<path d="M4 7C4 6.44772 4.44772 6 5 6C5.55228 6 6 6.44772 6 7V13C6 13.5523 5.55228 14 5 14C4.44772 14 4 13.5523 4 13V7Z" fill="var(--fill-0, white)" fill-opacity="0.8"/>
<path d="M8 4C8 3.44772 8.44772 3 9 3C9.55228 3 10 3.44772 10 4V13C10 13.5523 9.55228 14 9 14C8.44772 14 8 13.5523 8 13V4Z" fill="white" fill-opacity="0.6"/>
<path d="M12 1C12 0.447716 12.4477 0 13 0C13.5523 0 14 0.447715 14 1V13C14 13.5523 13.5523 14 13 14C12.4477 14 12 13.5523 12 13V1Z" fill="white" fill-opacity="0.6"/>
</g>
</svg>
