<svg preserveAspectRatio="none" width="100%" height="100%" overflow="visible" style="display: block;" viewBox="0 0 40.7642 36" fill="none" xmlns="http://www.w3.org/2000/svg">
<g id="Vector">
<path d="M14.5169 0C16.4289 0 18.2882 0.36724 20.0129 1.08488C20.1286 1.13118 20.2444 1.18064 20.3654 1.23536L20.3843 1.24588L20.4485 1.21536L20.7116 1.10067C22.4752 0.370397 24.3398 0 26.2454 0H26.3685C28.3036 0.0210453 30.1746 0.411435 31.9234 1.16065C33.6681 1.90881 35.2412 2.99158 36.5692 4.35321C37.6635 5.45283 38.5695 6.72186 39.2651 8.12661C39.9648 9.54506 40.4268 11.0635 40.6362 12.6324C41.0381 15.6145 40.4878 18.7103 39.0704 21.402L38.9841 21.5608C37.8719 23.617 36.7596 25.1122 34.3436 27.704C33.1093 29.0288 31.7509 30.3388 30.4092 31.4974C29.1465 32.5865 27.8954 33.5482 26.7642 34.2311C25.8024 34.8152 24.7628 35.2634 23.6853 35.5591C22.6393 35.8485 21.5018 36 20.3843 36C19.2721 36 18.1346 35.8495 17.0844 35.5602C16.0132 35.2655 14.9904 34.8267 14.0223 34.2448L13.9771 34.2164C12.8764 33.5556 11.639 32.6022 10.3626 31.5005C9.02618 30.3451 7.66665 29.0372 6.42919 27.7134C4.01425 25.1301 2.90411 23.6391 1.79608 21.5914L1.76872 21.5409C0.298708 18.8439 -0.283193 15.6829 0.129294 12.6292C0.340799 11.0582 0.800635 9.54506 1.49829 8.13082C2.19173 6.72712 3.11456 5.4402 4.21418 4.33532C5.53161 2.98001 7.09106 1.91091 8.83993 1.16275C10.6004 0.407226 12.4681 0.0157839 14.4138 0H14.5169ZM14.4285 3.33567C12.9385 3.3483 11.5074 3.64714 10.1532 4.22799C8.8073 4.80463 7.61509 5.62224 6.59229 6.6745C5.73259 7.53734 5.02231 8.52962 4.48987 9.60714C3.95216 10.6962 3.59755 11.8611 3.43445 13.0743C3.11772 15.4262 3.56703 17.8706 4.70137 19.9519L4.73084 20.0077C5.69261 21.7839 6.63438 23.0487 8.86623 25.4353C10.0227 26.6727 11.297 27.8997 12.5428 28.9761C13.6867 29.9632 14.7936 30.8166 15.7017 31.3616L15.7491 31.39C16.4499 31.812 17.1917 32.1308 17.9683 32.3444C18.7291 32.5528 19.5688 32.6654 20.3843 32.6654C21.204 32.6654 22.0416 32.5528 22.7993 32.3434C23.5821 32.1287 24.3356 31.8036 25.0364 31.3785C25.976 30.8102 27.0978 29.9484 28.23 28.973C29.478 27.8934 30.7502 26.6675 31.9034 25.43C34.1374 23.034 35.0823 21.7629 36.0515 19.9719L36.1283 19.8299C37.2142 17.7685 37.6393 15.3714 37.33 13.0754C37.169 11.8642 36.8133 10.6962 36.2745 9.60504C35.74 8.52331 35.0434 7.54997 34.1932 6.6945C33.1577 5.63276 31.9497 4.80148 30.6092 4.22694C29.2665 3.65135 27.8301 3.35146 26.3506 3.33567H26.2454C24.7775 3.33567 23.3464 3.61978 21.9953 4.17959C21.7596 4.2785 21.4902 4.40898 21.1735 4.5784C20.6821 4.84146 20.0918 4.84146 19.6004 4.5784C19.2437 4.38794 18.9953 4.27114 18.7459 4.17012C17.4159 3.61768 15.9911 3.33567 14.5169 3.33567H14.4285Z" fill="var(--fill-0, white)" fill-opacity="0.8"/>
<path d="M14.614 4.26145C15.9693 4.26145 17.2941 4.52347 18.5148 5.03066C18.9283 5.19797 19.487 5.49471 20.21 5.92719L20.3794 6.02926L20.5341 5.93771C21.1675 5.55889 21.6758 5.28215 22.0735 5.10221L22.2177 5.03908C23.4646 4.52347 24.7852 4.26145 26.1384 4.26145H26.2363C27.6021 4.27619 28.9258 4.55293 30.1644 5.08432C31.4008 5.61361 32.5235 6.39018 33.4737 7.36458C34.2545 8.14955 34.9006 9.05133 35.3952 10.0499C35.8918 11.058 36.2201 12.1376 36.3696 13.253C36.6558 15.3786 36.2685 17.5747 35.2647 19.4803L35.1868 19.6245C34.2566 21.3428 33.3348 22.5708 31.2103 24.849C30.0928 26.0475 28.8659 27.2323 27.6516 28.2804C26.5635 29.218 25.5176 30.0261 24.6042 30.5785C23.9707 30.9637 23.2836 31.2593 22.5744 31.454C21.8809 31.6466 21.1254 31.7465 20.3794 31.7465C19.6344 31.7465 18.8799 31.6466 18.1822 31.4551C17.4793 31.2615 16.809 30.9752 16.1798 30.5964L16.124 30.5627C15.3127 30.0756 14.2552 29.2716 13.1114 28.2835C11.9013 27.2397 10.6712 26.0549 9.54846 24.8542C7.44709 22.6055 6.49479 21.3376 5.58563 19.6592L5.55091 19.595C4.50496 17.6757 4.09247 15.428 4.385 13.253C4.53653 12.1334 4.86273 11.0569 5.3594 10.052C5.85291 9.05449 6.51689 8.13271 7.30398 7.34143C8.2426 6.37545 9.35063 5.61466 10.5881 5.08538C11.8371 4.54977 13.1545 4.27303 14.5277 4.26145H14.614ZM14.5414 7.59711C13.6249 7.60447 12.7452 7.78967 11.9023 8.1506C11.0689 8.50837 10.3271 9.01661 9.68209 9.68059C9.13281 10.233 8.68034 10.8602 8.34993 11.5294C8.01531 12.2071 7.79328 12.9352 7.69121 13.6981C7.49233 15.1713 7.77434 16.7034 8.47936 17.9977L8.51619 18.065C9.28013 19.4772 10.0651 20.5221 11.9855 22.5761C13.0272 23.6904 14.1721 24.7932 15.2906 25.7592C16.3029 26.6336 17.2215 27.3302 17.8466 27.7069L17.9023 27.7406C18.2664 27.9594 18.6558 28.1257 19.0661 28.2383C19.4723 28.3498 19.9301 28.4109 20.3794 28.4109C20.8276 28.4109 21.2833 28.3498 21.6884 28.2383C22.104 28.1236 22.5039 27.9521 22.8753 27.7258C23.5961 27.2902 24.5169 26.5789 25.4723 25.755C26.593 24.7869 27.7347 23.6862 28.7701 22.574C30.7147 20.4894 31.4702 19.4824 32.251 18.0408L32.3194 17.9135C32.9928 16.6339 33.257 15.1376 33.0633 13.6971C32.9613 12.9384 32.7393 12.2071 32.4046 11.5284C32.0711 10.8549 31.6365 10.2467 31.0977 9.70479C30.439 9.03029 29.6803 8.50521 28.8511 8.14955C28.0177 7.79283 27.1286 7.60658 26.2184 7.59711H26.1384C25.2229 7.59711 24.3359 7.77284 23.5025 8.11798C23.13 8.27477 22.3597 8.71356 21.2717 9.40174C20.7266 9.74688 20.0311 9.74583 19.487 9.40069C18.3895 8.70514 17.6172 8.26635 17.2499 8.11693C16.4218 7.77284 15.5316 7.59711 14.614 7.59711H14.5414Z" fill="var(--fill-0, white)" fill-opacity="0.8"/>
<path d="M14.841 8.47049C15.6512 8.47049 16.4373 8.62622 17.1718 8.93138C17.6537 9.12605 19.0406 9.97627 20.3706 10.856L20.3885 10.8675L20.4064 10.856C21.6523 10.0341 22.9455 9.23758 23.5095 8.97241L23.6063 8.92927C24.3419 8.62517 25.1269 8.47049 25.9318 8.47049H25.9855C26.8 8.4789 27.5892 8.64306 28.3236 8.95768C29.0634 9.27441 29.7326 9.74162 30.3124 10.3361C30.7849 10.8107 31.1742 11.3526 31.4678 11.9451C31.7635 12.5459 31.9592 13.192 32.0486 13.8612C32.2202 15.1345 31.9908 16.453 31.3952 17.5841L31.3436 17.6799L31.3131 17.7378C30.5839 19.0836 29.881 20.0043 28.0616 21.9563C27.0725 23.017 25.9918 24.0587 24.9311 24.9742C24.0041 25.775 23.1349 26.4389 22.5067 26.8167C22.1921 27.0082 21.8522 27.1545 21.5018 27.2502C21.1535 27.347 20.7673 27.3965 20.3896 27.3965C20.0108 27.3965 19.6225 27.347 19.271 27.2513C18.928 27.1566 18.5976 27.0156 18.284 26.8272L18.2398 26.8009C17.6432 26.441 16.7698 25.7718 15.8533 24.9805C14.7915 24.064 13.7077 23.0191 12.7144 21.9573C10.9339 20.0527 10.1763 19.0573 9.45551 17.7251L9.42184 17.6631C8.79574 16.514 8.55056 15.1692 8.72629 13.8612C8.81679 13.1909 9.01145 12.547 9.30714 11.9482C9.60283 11.3495 10.0027 10.7981 10.4909 10.3077C11.0549 9.72794 11.7158 9.27231 12.4503 8.95874C13.1858 8.64306 13.9687 8.4768 14.7715 8.47049H14.841ZM25.9508 11.8062H25.9687H25.9318C25.5625 11.8062 25.211 11.8756 24.8891 12.0082C24.6744 12.0987 23.3527 12.9079 22.2426 13.6403L21.305 14.259C20.7473 14.6262 20.0244 14.6262 19.4667 14.2579L18.5302 13.6381C17.4359 12.9142 16.1016 12.0966 15.9059 12.0177C15.566 11.8756 15.2135 11.8062 14.841 11.8062H14.7852C14.4411 11.8093 14.0949 11.8819 13.7635 12.024C13.4352 12.165 13.1395 12.3691 12.868 12.6469C12.6176 12.8995 12.4303 13.1573 12.2987 13.4245C12.164 13.696 12.0746 13.9928 12.0314 14.3074C11.9504 14.9135 12.0651 15.5427 12.3524 16.071L12.3892 16.1373C12.9574 17.1885 13.5499 17.9661 15.1514 19.6792C16.0637 20.6557 17.0623 21.6175 18.0336 22.4551C18.8196 23.1338 19.5583 23.7009 19.9697 23.9482L20.0118 23.9745C20.0518 23.9987 20.1034 24.0198 20.156 24.0345C20.2096 24.0492 20.3022 24.0608 20.3896 24.0608C20.4738 24.0608 20.5611 24.0503 20.6158 24.0345C20.6726 24.0198 20.7242 23.9966 20.7779 23.964C21.2219 23.6967 21.9553 23.1369 22.7519 22.4498C23.72 21.6133 24.7144 20.6546 25.6214 19.6823C27.264 17.9198 27.8038 17.2127 28.3657 16.1752L28.3941 16.1204L28.451 16.0173C28.7151 15.5154 28.8224 14.8967 28.7435 14.3053C28.7014 13.9928 28.6109 13.695 28.4773 13.4235C28.3447 13.1562 28.1668 12.9089 27.9364 12.6764C27.6449 12.3786 27.3377 12.1639 27.0104 12.024C26.6832 11.884 26.3285 11.8104 25.9508 11.8062Z" fill="var(--fill-0, white)" fill-opacity="0.8"/>
</g>
</svg>
