<svg preserveAspectRatio="none" width="100%" height="100%" overflow="visible" style="display: block;" viewBox="0 0 7.74216 6.00001" fill="none" xmlns="http://www.w3.org/2000/svg">
<path id="Vector" fill-rule="evenodd" clip-rule="evenodd" d="M3.2726 2.03208L7.47385 4.8175C7.61968 4.89625 7.71885 5.04083 7.73843 5.20458C7.77218 5.48333 7.57301 5.7375 7.29468 5.77083C7.18176 5.785 7.07051 5.76125 6.97301 5.70208L4.44968 4.03625L4.04385 4.71L5.15635 5.00792C5.34301 5.06958 5.47885 5.23542 5.5026 5.43042C5.53593 5.70875 5.33635 5.9625 5.05801 5.99625C4.98051 6.00583 4.90301 5.99708 4.8251 5.97L3.20801 5.52583C2.99676 5.46333 2.83885 5.31292 2.77468 5.1125C2.71051 4.9125 2.75051 4.6975 2.88718 4.52083L3.58635 3.45125L2.99551 3.05125L2.02385 3.71875C1.83051 3.85542 1.71301 3.93625 1.52926 3.96167L1.51801 3.96292C1.3376 3.98458 1.15135 3.9325 1.0051 3.81792L0.256762 3.19C0.115929 3.06375 0.0325959 2.96542 0.00426253 2.74083C-0.0315708 2.4575 0.163429 2.26625 0.404679 2.2675C0.674679 2.26917 0.674263 2.31 0.846763 2.39083L1.40301 2.86917L2.30801 2.21C2.5226 2.0475 2.6751 1.94792 2.82676 1.94042C2.98385 1.93292 3.14176 1.95458 3.2726 2.03208ZM5.0226 0.91C5.1776 1.01167 5.2576 1.19833 5.23218 1.39625L5.0101 2.4475L3.43801 1.49083L4.48385 0.915417C4.65218 0.81125 4.86968 0.809167 5.0226 0.91ZM1.99176 0C2.4526 0 2.8276 0.375417 2.8276 0.836667C2.8276 1.29667 2.4526 1.67125 1.99176 1.67125C1.53135 1.67125 1.15593 1.29667 1.15593 0.836667C1.15593 0.375417 1.53135 0 1.99176 0Z" fill="var(--fill-0, white)" fill-opacity="0.8"/>
</svg>
