<svg preserveAspectRatio="none" width="100%" height="100%" overflow="visible" style="display: block;" viewBox="0 0 15.8333 15.8333" fill="none" xmlns="http://www.w3.org/2000/svg">
<path id="Vector" d="M15.6794 6.36619H15.0417V6.33333H7.91667V9.5H12.3908C11.738 11.3434 9.9841 12.6667 7.91667 12.6667C5.29348 12.6667 3.16667 10.5399 3.16667 7.91667C3.16667 5.29348 5.29348 3.16667 7.91667 3.16667C9.12752 3.16667 10.2291 3.62346 11.0679 4.3696L13.3071 2.13037C11.8932 0.812646 10.0019 0 7.91667 0C3.54469 0 0 3.54469 0 7.91667C0 12.2886 3.54469 15.8333 7.91667 15.8333C12.2886 15.8333 15.8333 12.2886 15.8333 7.91667C15.8333 7.38585 15.7787 6.86771 15.6794 6.36619Z" fill="var(--fill-0, white)" fill-opacity="0.8"/>
</svg>
