<svg preserveAspectRatio="none" width="100%" height="100%" overflow="visible" style="display: block;" viewBox="0 0 13.4069 18.3" fill="none" xmlns="http://www.w3.org/2000/svg">
<path id="Vector" d="M11.2 7.2L11.1 4.5C11.1 2 9.1 0 6.7 0C4.3 0 2.3 2 2.3 4.5V7.2H2.2C1 7.2 0 8.2 0 9.4V16.1C0 17.3 1 18.3 2.2 18.3H11.2C12.4 18.3 13.4 17.3 13.4 16.1V9.4C13.5 8.2 12.5 7.2 11.2 7.2ZM5.5 11.6C5.5 10.9 6.1 10.3 6.8 10.3C7.5 10.3 8.1 10.9 8.1 11.6C8.1 12 7.9 12.4 7.6 12.6V14.7C7.6 15.1 7.3 15.5 6.8 15.5C6.3 15.5 6 15.2 6 14.7V12.6C5.7 12.4 5.5 12 5.5 11.6ZM3.8 4.4C3.8 2.7 5.1 1.4 6.7 1.4C8.3 1.4 9.6 2.7 9.6 4.4V7.1H3.8V4.4Z" fill="var(--fill-0, white)" fill-opacity="0.8"/>
</svg>
