<svg preserveAspectRatio="none" width="100%" height="100%" overflow="visible" style="display: block;" viewBox="0 0 18.73 17.52" fill="none" xmlns="http://www.w3.org/2000/svg">
<path id="Vector" d="M8.98 17.52C14.36 17.52 18.73 13.15 18.73 7.77C18.73 4.68 17.29 1.92 15.05 0.139999C14.97 0.0799994 14.89 0.0399988 14.81 0.0299988C14.75 0.00999878 14.69 0 14.63 0C14.26 0 13.96 0.299996 13.95 0.679996C13.95 0.709996 13.95 0.739997 13.96 0.769997C13.99 1.11 14.01 1.46 14.01 1.82C14.01 7.14 9.7 11.45 4.38 11.45C3.17 11.45 2.02 11.23 0.96 10.83C0.88 10.79 0.78 10.77 0.67 10.77C0.3 10.77 0 11.07 0 11.44C0 11.57 0.0299992 11.69 0.0899992 11.79C1.62 15.17 5.03 17.52 8.98 17.52Z" fill="var(--fill-0, white)"/>
</svg>
