<svg preserveAspectRatio="none" width="100%" height="100%" overflow="visible" style="display: block;" viewBox="0 0 7.32293 20.1636" fill="none" xmlns="http://www.w3.org/2000/svg">
<g id="Vector">
<path d="M6.16173 6.10106C5.41766 6.84513 3.20621 7.10106 3.20621 7.10106L3.66173 3.10106L6.20621 0.101058C6.20621 0.101058 6.73987 0.257309 7.16173 1.10104C7.66173 2.10106 6.9058 5.35699 6.16173 6.10106Z" fill="white" fill-opacity="0.6"/>
<path d="M6.11725 14.1011C5.37318 13.357 3.16173 13.1011 3.16173 13.1011L3.61725 17.1011L6.16173 20.1011C6.16173 20.1011 6.69539 19.9448 7.11725 19.1011C7.61725 18.1011 6.86132 14.8451 6.11725 14.1011Z" fill="white" fill-opacity="0.6"/>
<path d="M0.661714 15.1011C-0.338275 11.6011 -0.230857 6.60106 1.1617 2.60106C2.33522 -0.769764 6.16182 0.101066 6.20621 0.101058C3.20624 4.10106 0.661768 11.6011 6.16173 20.1011C2.16182 20.6011 1.49724 18.0254 0.661714 15.1011Z" fill="var(--fill-0, white)"/>
</g>
</svg>
