<svg preserveAspectRatio="none" width="100%" height="100%" overflow="visible" style="display: block;" viewBox="0 0 13.0517 13.0515" fill="none" xmlns="http://www.w3.org/2000/svg">
<g id="Vector">
<path fill-rule="evenodd" clip-rule="evenodd" d="M12.6257 3.97769C13.6862 5.03869 12.7127 7.90269 10.3072 10.3072C7.90269 12.7127 5.03919 13.6862 3.97769 12.6252C3.50519 12.1527 3.43669 11.3222 3.71819 10.3337C4.99769 9.95569 6.45919 9.03219 7.74519 7.74519C9.03219 6.45869 9.95619 4.99769 10.3337 3.71819L10.4462 3.68769C11.3852 3.44219 12.1707 3.52319 12.6257 3.97769ZM9.90469 0.583692L12.4997 3.17869C10.9232 2.42319 8.15069 3.53819 5.84469 5.84469C3.53819 8.15119 2.42319 10.9227 3.17869 12.5002L0.583692 9.90469C-0.759808 8.56119 0.304692 5.42919 2.86719 2.86719C5.42969 0.304692 8.56069 -0.759808 9.90469 0.583692Z" fill="var(--fill-0, white)"/>
<path d="M10.7236 4.1377C11.5201 3.95859 12.0248 4.08379 12.2725 4.33105C12.4249 4.4837 12.5333 4.72903 12.5498 5.09863C12.5663 5.47014 12.487 5.93597 12.2959 6.46973C11.9139 7.53661 11.1147 8.79291 9.9541 9.95313L9.95313 9.9541C8.79309 11.1145 7.53739 11.9129 6.4707 12.2949C5.9367 12.4861 5.47028 12.5664 5.09863 12.5498C4.72896 12.5333 4.48387 12.4242 4.33105 12.2715C4.08332 12.0236 3.95865 11.5163 4.13672 10.7236C5.35469 10.3034 6.66996 9.46245 7.84766 8.34375L8.09863 8.09863C9.33886 6.85887 10.2734 5.44291 10.7236 4.1377ZM6.99902 0.735352C8.20624 0.337872 9.08061 0.467627 9.55078 0.9375L11.0684 2.4541C10.4854 2.49533 9.87066 2.65442 9.25977 2.89941C8.00824 3.40135 6.68338 4.29879 5.49121 5.49121C4.29882 6.6836 3.40136 8.00828 2.89941 9.25977C2.6544 9.87066 2.49534 10.4853 2.4541 11.0684L0.9375 9.55078C0.467682 9.08091 0.337827 8.2065 0.735352 6.99902C1.1243 5.81768 1.98204 4.45913 3.2207 3.2207C4.45941 1.982 5.81781 1.1243 6.99902 0.735352Z" stroke="var(--stroke-0, white)" stroke-opacity="0.8"/>
</g>
</svg>
