<svg preserveAspectRatio="none" width="100%" height="100%" overflow="visible" style="display: block;" viewBox="0 0 13.8535 15.8753" fill="none" xmlns="http://www.w3.org/2000/svg">
<path id="Vector" fill-rule="evenodd" clip-rule="evenodd" d="M2.25401 11.5029L3.94184 10.2568H3.94738L4.61872 13.8122L2.25401 11.5029ZM9.62522 5.36592C10.2008 5.36592 10.2965 4.02088 10.3124 3.57913C10.3155 3.49996 10.2775 3.41208 10.2134 3.36538C10.0361 3.23554 10.0551 3.07483 10.0543 2.81517C10.0543 2.78983 10.0535 2.76371 10.0535 2.736L10.067 2.40746L10.0796 2.13275C10.0828 1.77333 9.96563 1.43292 9.76772 1.13288V1.13129C9.53972 0.784542 9.14388 0.490833 8.69976 0.28025C8.55172 0.210583 8.39893 0.150417 8.24455 0.0997499C8.02209 0.0356249 7.78697 0 7.54392 0C6.14742 0 5.01613 1.13208 5.01613 2.52858C5.01613 2.66396 5.02722 2.79775 5.0478 2.92838C5.06601 3.01546 5.08659 3.10333 5.11272 3.192C5.18951 3.45325 5.30667 3.68996 5.43492 3.91558H4.71134C3.89592 3.93775 3.10505 4.26708 2.51922 4.8545L1.75684 5.61767C1.64601 5.72375 1.33013 6.04517 0.973091 5.63746L1.33013 6.04517C1.98563 6.82496 3.16126 6.85979 3.8603 6.12038L5.59563 4.18554C5.68192 4.32883 5.76901 4.47133 5.84897 4.61304L5.88301 4.67479C5.91547 4.73417 5.94713 4.79433 5.97563 4.85529C6.16722 5.25746 6.19492 5.87496 6.02947 6.41408C5.85688 6.37054 5.67955 6.34758 5.50222 6.34758C5.37238 6.34758 5.24255 6.35946 5.1143 6.384C5.0003 6.40538 4.89897 6.43308 4.81663 6.46792C4.49205 6.58667 4.21101 6.77508 4.00201 7.00229L0.340549 10.8941C-0.180367 11.3976 -0.0893256 12.259 0.515508 12.6564L3.59984 14.9C4.24584 15.2958 5.00109 15.671 5.70884 15.8088C6.12288 15.8523 6.54405 15.8753 6.97234 15.8753C7.82813 15.8753 8.65859 15.7866 9.45105 15.6212C9.57772 15.5792 9.7788 15.5 10.0203 15.3734V15.3773C10.0393 15.3663 10.0606 15.3528 10.0812 15.3409C10.101 15.3298 10.1192 15.3211 10.1398 15.31V15.3061C10.3646 15.1715 10.614 14.9997 10.8713 14.7749L13.3255 12.2431C13.4632 12.103 13.563 11.9945 13.6382 11.898C13.7712 11.7689 13.8535 11.59 13.8535 11.3913V10.1033C13.8535 10.0732 13.8511 10.0455 13.8488 10.0185C13.8472 10.0043 13.8448 9.99004 13.8424 9.97579L13.8353 9.94333C13.8313 9.92829 13.8274 9.91325 13.8234 9.89821C13.6999 9.51425 13.2415 9.48338 13.2415 9.48338C13.2344 9.48258 13.2273 9.48258 13.2218 9.48258C13.1568 9.48258 13.0895 9.49446 13.0207 9.51425C12.6842 9.61162 12.3303 9.899 12.3177 9.9085L12.3161 9.90929C12.157 10.0391 12.0548 10.2355 12.0548 10.4555L12.2314 11.3913C12.2314 11.461 12.2417 11.5267 12.2607 11.59L10.1398 13.1884V12.7039L10.0551 9.56967L10.0519 9.57362C9.95772 8.41304 8.63722 7.36488 8.55172 7.29838L8.92697 5.36592H9.62522Z" fill="var(--fill-0, white)" fill-opacity="0.8"/>
</svg>
