<svg preserveAspectRatio="none" width="100%" height="100%" overflow="visible" style="display: block;" viewBox="0 0 15.8333 15.8333" fill="none" xmlns="http://www.w3.org/2000/svg">
<path id="Vector" fill-rule="evenodd" clip-rule="evenodd" d="M7.91667 13.4C6.27325 13.4 4.80937 12.6375 3.85621 11.4484C4.27215 9.58843 5.93148 8.19763 7.91667 8.19763C9.90145 8.19763 11.5609 9.58843 11.9767 11.4484C11.0236 12.6375 9.55993 13.4 7.91667 13.4ZM7.90289 3.03232C8.96483 3.03232 9.82522 3.89294 9.82522 4.95472C9.82522 6.01643 8.96483 6.87752 7.90289 6.87752C6.84071 6.87752 5.98009 6.01643 5.98009 4.95472C5.98009 3.89294 6.84071 3.03232 7.90289 3.03232ZM7.9169 0C3.54429 0 0 3.54437 0 7.91667C0 12.2891 3.54429 15.8333 7.9169 15.8333C12.289 15.8333 15.8333 12.2891 15.8333 7.91667C15.8333 3.54437 12.289 0 7.9169 0Z" fill="var(--fill-0, white)" fill-opacity="0.8"/>
</svg>
