<svg preserveAspectRatio="none" width="100%" height="100%" overflow="visible" style="display: block;" viewBox="0 0 7.48875 7.08333" fill="none" xmlns="http://www.w3.org/2000/svg">
<path id="Subtract" d="M4.73209 0.227603C4.78865 -0.0397128 4.982 -0.0195723 5.0878 0.0307492C5.09926 0.0362024 5.109 0.0436795 5.11798 0.0526516C5.70463 0.638992 6.93299 1.84653 7.25874 2.09084C7.58692 2.33701 7.54315 2.83448 7.25874 3.11651C6.38092 3.98701 3.98092 6.46046 3.90981 6.53375C3.90758 6.53605 3.90693 6.53649 3.90454 6.53863C3.38611 7.00076 2.87071 7.09381 2.6774 7.08245C2.00503 7.08245 0.897399 7.08242 0.523491 7.08245C0.0426318 7.08248 -0.299253 5.91457 0.386735 5.54387C0.788575 5.32671 1.33424 4.94145 1.73273 4.36982C1.75396 4.37887 1.77654 4.38574 1.80024 4.38992L3.01228 4.60367C3.17964 4.63318 3.33929 4.52142 3.3688 4.35406C3.3983 4.18671 3.28654 4.02713 3.11919 3.99762L2.05178 3.80938C2.05309 3.80703 2.0544 3.80466 2.05572 3.8023C2.05843 3.79746 2.06085 3.79262 2.06293 3.78747C2.08466 3.73394 2.21578 3.40628 2.265 3.17955C2.26697 3.17046 2.2688 3.16144 2.27067 3.15251C2.2787 3.1546 2.28686 3.15651 2.29518 3.15798L3.23792 3.32419C3.40527 3.35369 3.56484 3.24199 3.59436 3.07465C3.62387 2.90729 3.51211 2.74764 3.34476 2.71813L2.40202 2.55193C2.37847 2.54777 2.35508 2.54652 2.33217 2.54772C2.29413 1.98504 2.6335 1.68485 2.74511 1.60198C2.76733 1.58548 2.794 1.57881 2.82164 1.58008C3.04581 1.59031 4.11185 1.62452 4.48942 1.3728C4.79192 1.1711 4.75294 0.594867 4.72988 0.261459C4.7291 0.250138 4.72974 0.238706 4.73209 0.227603Z" fill="var(--fill-0, white)" fill-opacity="0.8"/>
</svg>
