<svg preserveAspectRatio="none" width="100%" height="100%" overflow="visible" style="display: block;" viewBox="0 0 6.97917 6.97917" fill="none" xmlns="http://www.w3.org/2000/svg">
<path id="Vector" d="M4.74167 3.67958H3.57125C3.28458 3.67958 3.05042 3.44542 3.05042 3.15875V1.59625C3.05042 1.42375 3.19042 1.28375 3.36292 1.28375C3.53583 1.28375 3.67542 1.42375 3.67542 1.59625V3.05458H4.74167C4.91417 3.05458 5.05417 3.19458 5.05417 3.36708C5.05417 3.53958 4.91417 3.67958 4.74167 3.67958ZM3.48958 0C1.56542 0 0 1.56542 0 3.48958C0 5.41375 1.56542 6.97917 3.48958 6.97917C5.41375 6.97917 6.97917 5.41375 6.97917 3.48958C6.97917 1.56542 5.41375 0 3.48958 0Z" fill="var(--fill-0, white)" fill-opacity="0.8"/>
</svg>
