<svg preserveAspectRatio="none" width="100%" height="100%" overflow="visible" style="display: block;" viewBox="0 0 11.5829 15.25" fill="none" xmlns="http://www.w3.org/2000/svg">
<path id="Vector" fill-rule="evenodd" clip-rule="evenodd" d="M8.125 0C8.93 0 9.58286 0.652857 9.58286 1.45857L9.58357 3.24714C10.8086 4.30929 11.5829 5.87643 11.5829 7.625C11.5829 9.37357 10.8086 10.9407 9.58357 12.0029L9.58286 13.7914C9.58286 14.5971 8.93 15.25 8.125 15.25H3.45786C2.65286 15.25 2 14.5971 2 13.7914L1.99929 12.0029C0.774286 10.9407 0 9.37357 0 7.625C0 5.87714 0.774285 4.31 1.99857 3.24786L2 1.45857C2 0.652857 2.65286 0 3.45786 0H8.125ZM5.79143 3.08357C3.28357 3.08357 1.25 5.11714 1.25 7.625C1.25 10.1336 3.28286 12.1664 5.79143 12.1664C8.3 12.1664 10.3329 10.1336 10.3329 7.625C10.3329 5.11714 8.29929 3.08357 5.79143 3.08357Z" fill="var(--fill-0, white)" fill-opacity="0.8"/>
</svg>
