<svg preserveAspectRatio="none" width="100%" height="100%" overflow="visible" style="display: block;" viewBox="0 0 8.80859 16.5156" fill="none" xmlns="http://www.w3.org/2000/svg">
<path id="Subtract" d="M0.550781 0C5.11127 0.000142779 8.80859 3.69729 8.80859 8.25781C8.80854 12.8183 5.11124 16.5155 0.550781 16.5156H0V13.0947C0.00264143 13.0951 0.00516758 13.0963 0.0078125 13.0967C0.208016 13.1254 0.418496 13.1396 0.638672 13.1396C1.80123 13.1396 2.71732 12.7214 3.38672 11.8848C4.06495 11.0392 4.4043 9.81015 4.4043 8.19824C4.4043 6.6568 4.08245 5.46764 3.43945 4.63086C2.80526 3.79415 1.90678 3.37598 0.744141 3.37598C0.484408 3.37598 0.238823 3.39583 0.0078125 3.43652C0.00523032 3.43698 0.00257859 3.43704 0 3.4375V0H0.550781ZM2.66016 8.38281C2.64254 9.40445 2.45772 10.1756 2.10547 10.6953C1.76196 11.2062 1.27283 11.4619 0.638672 11.4619C0.423106 11.4619 0.2148 11.4308 0.0146484 11.3691C0.00963769 11.3676 0.00500108 11.3649 0 11.3633V9.73047C0.00261061 9.73071 0.00519882 9.73121 0.0078125 9.73145C0.101475 9.73989 0.19732 9.74414 0.294922 9.74414C0.664868 9.74414 1.02658 9.66441 1.37891 9.50586C1.73102 9.34731 2.03083 9.10992 2.27734 8.79297C2.44478 8.57931 2.57221 8.32745 2.66016 8.03809V8.38281ZM0.731445 5.01367C1.1893 5.01375 1.54639 5.15473 1.80176 5.43652C2.05717 5.71838 2.18457 6.08887 2.18457 6.54688C2.18455 6.8639 2.12232 7.14113 1.99902 7.37891C1.87573 7.60786 1.70452 7.78879 1.48438 7.9209C1.26417 8.05302 1.00845 8.11914 0.717773 8.11914C0.445357 8.11913 0.208561 8.06945 0.0078125 7.96973C0.00507284 7.96837 0.0027264 7.96622 0 7.96484V5.17383C0.00257982 5.17248 0.00522054 5.17125 0.0078125 5.16992C0.211392 5.06574 0.452988 5.01367 0.731445 5.01367Z" fill="var(--fill-0, white)" fill-opacity="0.6"/>
</svg>
