<svg preserveAspectRatio="none" width="100%" height="100%" overflow="visible" style="display: block;" viewBox="0 0 15.4141 16.5156" fill="none" xmlns="http://www.w3.org/2000/svg">
<path id="Subtract" d="M15.4141 3.4375C15.0218 3.50753 14.6715 3.63752 14.3623 3.8252C13.8779 4.12465 13.5123 4.52533 13.2656 5.02734C13.019 5.52057 12.8955 6.07099 12.8955 6.67871C12.8955 7.26001 13.0142 7.78417 13.252 8.25098C13.4985 8.71773 13.8332 9.08342 14.2559 9.34766C14.6008 9.56322 14.9871 9.68978 15.4141 9.72949V11.3633C15.317 11.3326 15.2213 11.2953 15.1279 11.25C14.8462 11.1003 14.6039 10.8628 14.4014 10.5371L12.9346 11.3691C13.2605 11.9064 13.6796 12.3382 14.1904 12.6641C14.5452 12.8842 14.9531 13.0275 15.4141 13.0947V16.5156H8.25781C3.69723 16.5156 4.948e-05 12.8184 0 8.25781C0 3.6972 3.6972 0 8.25781 0H15.4141V3.4375ZM8.6748 3.37598C7.51212 3.37598 6.59132 3.79894 5.91309 4.64453C5.24376 5.48131 4.90918 6.70559 4.90918 8.31738C4.90921 9.84991 5.22619 11.0392 5.86035 11.8848C6.50334 12.7213 7.40192 13.1396 8.55566 13.1396C9.27773 13.1396 9.88087 12.9898 10.3652 12.6904C10.8496 12.391 11.2153 11.9902 11.4619 11.4883C11.7085 10.9863 11.832 10.4357 11.832 9.83691C11.832 9.24684 11.7085 8.72263 11.4619 8.26465C11.2242 7.79799 10.8942 7.43219 10.4717 7.16797C10.0489 6.90372 9.56369 6.77148 9.01758 6.77148C8.65661 6.77152 8.29554 6.85035 7.93457 7.00879C7.58229 7.16732 7.27788 7.40951 7.02246 7.73535C6.8612 7.94269 6.73829 8.19014 6.65234 8.47656V8.13184C6.66119 7.10164 6.84218 6.33114 7.19434 5.82031C7.54667 5.30943 8.04061 5.05371 8.6748 5.05371C9.00052 5.05378 9.30422 5.12866 9.58594 5.27832C9.87661 5.41925 10.1236 5.65261 10.3262 5.97852L11.7793 5.14648C11.4622 4.60918 11.048 4.18135 10.5371 3.86426C10.0264 3.53854 9.40555 3.37605 8.6748 3.37598ZM8.59473 8.39648C9.06138 8.39648 9.41842 8.54158 9.66504 8.83203C9.91167 9.11389 10.0352 9.49311 10.0352 9.96875C10.0351 10.4179 9.91158 10.7875 9.66504 11.0781C9.41844 11.3599 9.05758 11.5009 8.58203 11.501C8.124 11.501 7.76716 11.36 7.51172 11.0781C7.2564 10.7875 7.12892 10.4178 7.12891 9.96875C7.12891 9.65165 7.19016 9.37843 7.31348 9.14941C7.43679 8.91164 7.60893 8.72683 7.8291 8.59473C8.04918 8.46274 8.30429 8.39653 8.59473 8.39648ZM15.4141 7.96387C15.2811 7.89648 15.1637 7.80788 15.0625 7.69629C14.8159 7.40565 14.6924 7.02244 14.6924 6.54688C14.6924 6.08885 14.8198 5.71839 15.0752 5.43652C15.1732 5.32845 15.2863 5.24143 15.4141 5.1748V7.96387Z" fill="var(--fill-0, white)" fill-opacity="0.8"/>
</svg>
