<svg preserveAspectRatio="none" width="100%" height="100%" overflow="visible" style="display: block;" viewBox="0 0 8.80824 16.5154" fill="none" xmlns="http://www.w3.org/2000/svg">
<path id="Subtract" fill-rule="evenodd" clip-rule="evenodd" d="M0.550517 0H0V3.43822C0.00267333 3.43774 0.00534858 3.43726 0.00802577 3.43679C0.239082 3.39609 0.484505 3.37573 0.744295 3.37573C1.90698 3.37573 2.80542 3.79412 3.43962 4.63091C4.08262 5.46769 4.40412 6.6568 4.40412 8.19824C4.40412 9.81015 4.065 11.0389 3.38677 11.8845C2.71734 12.7213 1.80128 13.1397 0.638595 13.1397C0.418419 13.1397 0.208229 13.1253 0.00802577 13.0965C0.00534873 13.0961 0.00267346 13.0958 0 13.0954V16.5154H0.550517C5.11113 16.5154 8.80824 12.8183 8.80824 8.25772C8.80824 3.69711 5.11113 0 0.550517 0ZM0 11.3645C0.00500144 11.3661 0.0100077 11.3677 0.0150188 11.3692C0.21517 11.4309 0.423029 11.4617 0.638595 11.4617C1.27279 11.4617 1.76165 11.2063 2.10517 10.6954C2.4575 10.1757 2.64247 9.40497 2.66009 8.38322V8.03818C2.57212 8.32758 2.4444 8.57912 2.27693 8.7928C2.0303 9.1099 1.73082 9.34772 1.37849 9.50627C1.02616 9.66481 0.66502 9.74409 0.295074 9.74409C0.19742 9.74409 0.101737 9.73986 0.00802577 9.73141C0.0053489 9.73117 0.00267365 9.73093 0 9.73068V11.3645ZM0 7.96532L0.00802577 7.96937C0.208798 8.0691 0.445413 8.11897 0.71787 8.11897C1.00854 8.11897 1.26398 8.05291 1.48419 7.92078C1.70439 7.78866 1.87615 7.60809 1.99947 7.37908C2.12278 7.14125 2.18444 6.8638 2.18444 6.5467C2.18444 6.08867 2.05672 5.71873 1.80128 5.43686C1.54584 5.155 1.18911 5.01407 0.731081 5.01407C0.452624 5.01407 0.211606 5.06615 0.00802577 5.17033C0.00534402 5.1717 0.00266875 5.17309 0 5.17448V7.96532Z" fill="var(--fill-0, white)" fill-opacity="0.6"/>
</svg>
