<svg preserveAspectRatio="none" width="100%" height="100%" overflow="visible" style="display: block;" viewBox="0 0 16.0733 21.8737" fill="none" xmlns="http://www.w3.org/2000/svg">
<path id="Vector" fill-rule="evenodd" clip-rule="evenodd" d="M9.36707 19.9662C9.34707 19.98 9.28832 20.025 9.19832 19.98C9.11082 19.935 9.11082 19.86 9.11082 19.8362V12.7325L14.0246 16.4462C14.0396 16.4575 14.0571 16.47 14.0758 16.4812C14.0821 16.4862 14.0896 16.4912 14.0958 16.4962L9.36707 19.9662ZM9.11082 2.03746C9.11082 2.01246 9.11082 1.93746 9.19832 1.89371C9.22707 1.87871 9.25207 1.87371 9.27457 1.87371C9.32207 1.87371 9.35332 1.89746 9.36707 1.90746L14.0471 5.34121C14.0596 5.34996 14.0833 5.36621 14.0896 5.37746L9.11082 9.13996V2.03746ZM16.0683 16.3637C16.0383 15.9762 15.8508 15.4137 15.1308 14.9325L9.84332 10.9362L15.2821 6.82621C15.3046 6.81121 15.3258 6.79371 15.3446 6.77496C15.7583 6.40246 15.9858 5.83871 15.9508 5.26871C15.9146 4.68246 15.6146 4.15121 15.1408 3.81746L10.4771 0.396212C9.85457 -0.0600381 9.03957 -0.127538 8.35207 0.221212C7.66332 0.568712 7.23582 1.26496 7.23582 2.03746V8.96621L1.50332 4.63371C1.08957 4.32246 0.502071 4.40496 0.189571 4.81746C-0.122929 5.23121 -0.040429 5.81871 0.373321 6.13121L6.73332 10.9362L0.373321 15.7425C-0.040429 16.055 -0.122929 16.6425 0.189571 17.0562C0.502071 17.4687 1.08957 17.55 1.50332 17.2375L7.23582 12.9075V19.8362C7.23582 20.6075 7.66332 21.3025 8.35207 21.6525C8.64457 21.8012 8.95957 21.8737 9.27332 21.8737C9.69832 21.8737 10.1196 21.74 10.4771 21.4775L15.3283 17.9187C15.3533 17.9 15.3796 17.8787 15.4021 17.8575C16.0071 17.3087 16.0983 16.7425 16.0683 16.3637Z" fill="var(--fill-0, #3F3F3F)"/>
</svg>
