<svg preserveAspectRatio="none" width="100%" height="100%" overflow="visible" style="display: block;" viewBox="0 0 21.5506 21.5489" fill="none" xmlns="http://www.w3.org/2000/svg">
<path id="Vector" fill-rule="evenodd" clip-rule="evenodd" d="M14.7431 0.0126493L14.7231 0.00389935C14.7006 -0.00610065 14.6881 0.0038993 14.6956 0.0251493L14.7031 0.0426492C15.1356 1.24015 15.3731 2.53265 15.3731 3.8814C15.3731 10.0714 10.3919 15.0876 4.2469 15.0876C2.7544 15.0876 1.33315 14.7914 0.033149 14.2551L0.0181489 14.2489C0.00189893 14.2414 -0.00435118 14.2551 0.00314882 14.2789L0.0118991 14.2989C1.5994 18.5364 5.6619 21.5489 10.4231 21.5489C16.5694 21.5489 21.5506 16.5314 21.5506 10.3426C21.5506 5.69515 18.7431 1.7114 14.7431 0.0126493Z" fill="var(--fill-0, #3F3F3F)"/>
</svg>
