<svg preserveAspectRatio="none" width="100%" height="100%" overflow="visible" style="display: block;" viewBox="0 0 17.4119 17.45" fill="none" xmlns="http://www.w3.org/2000/svg">
<path id="Vector" fill-rule="evenodd" clip-rule="evenodd" d="M0.849402 11.6667L5.64107 16.4583C5.64107 16.5625 5.5369 16.5625 5.43274 16.5625L0.849402 17.3958C0.328569 17.6042 -0.0880978 17.1875 0.0160689 16.5625L0.849402 11.9792C0.953569 11.875 0.953569 11.7708 0.849402 11.6667ZM11.4744 0.625C12.2036 -0.208333 13.5577 -0.208333 14.3911 0.625L16.7869 3.02083C17.6202 3.85417 17.6202 5.10417 16.7869 5.9375L7.93274 14.7917C7.7244 15 7.4119 15 7.20357 14.7917L2.62024 10.2083C2.4119 10 2.4119 9.6875 2.62024 9.47917L11.4744 0.625Z" fill="var(--fill-0, white)"/>
</svg>
