<svg preserveAspectRatio="none" width="100%" height="100%" overflow="visible" style="display: block;" viewBox="0 0 20.3342 22.6667" fill="none" xmlns="http://www.w3.org/2000/svg">
<path id="Vector" d="M10.5488 0.5H11.627C14.4224 0.500036 16.4606 1.78759 17.8135 3.52344C19.1774 5.27348 19.8339 7.46925 19.834 9.21973V11.1855C19.8338 11.5043 19.5747 11.7637 19.2559 11.7637C18.9372 11.7635 18.6779 11.5042 18.6777 11.1855V9.21973C18.6776 7.68917 18.1237 5.81531 16.9756 4.31543C15.8165 2.80122 14.0394 1.65629 11.627 1.65625H10.4082V17.5498C10.4082 17.585 10.4038 17.6256 10.3936 17.6738L10.3877 17.7021L10.3848 17.7314C10.1514 20.2095 8.03408 22.1669 5.45508 22.167C2.71707 22.167 0.5 19.9654 0.5 17.2764C0.500175 14.5853 2.71704 12.3867 5.45508 12.3867C6.58034 12.3867 7.61684 12.7633 8.45117 13.3926L9.25195 13.9971V1.79688C9.25195 1.08383 9.83468 0.500006 10.5488 0.5Z" fill="var(--fill-0, #3F3F3F)" stroke="var(--stroke-0, #3F3F3F)"/>
</svg>
