<svg preserveAspectRatio="none" width="100%" height="100%" overflow="visible" style="display: block;" viewBox="0 0 23.7292 23.7292" fill="none" xmlns="http://www.w3.org/2000/svg">
<path id="Vector" d="M8.5 0C9.08792 0 9.5625 0.476 9.5625 1.0625C9.5625 1.65042 9.08792 2.125 8.5 2.125H4.60417C3.23708 2.125 2.125 3.23708 2.125 4.60417V19.125C2.125 20.4935 3.23708 21.6042 4.60417 21.6042H19.125C20.4921 21.6042 21.6042 20.4935 21.6042 19.125V15.2292C21.6042 14.6427 22.0802 14.1667 22.6667 14.1667C23.2546 14.1667 23.7292 14.6427 23.7292 15.2292V19.125C23.7292 21.6651 21.6637 23.7292 19.125 23.7292H4.60417C2.0655 23.7292 0 21.6651 0 19.125V4.60417C0 2.0655 2.0655 0 4.60417 0H8.5ZM20.4178 0.0884001C21.7849 0.0884001 22.897 1.20048 22.897 2.56757V8.18465C22.897 8.77115 22.421 9.24715 21.8345 9.24715C21.2466 9.24715 20.772 8.77115 20.772 8.18465V3.52948L12.425 12.0621C12.2168 12.276 11.9405 12.3822 11.6657 12.3822C11.3965 12.3822 11.1288 12.2831 10.9219 12.0791C10.5026 11.6696 10.4955 10.9967 10.9063 10.576L19.0862 2.2134H14.5443C13.9564 2.2134 13.4818 1.7374 13.4818 1.1509C13.4818 0.5644 13.9564 0.0884001 14.5443 0.0884001H20.4178Z" fill="var(--fill-0, #DDDDDD)"/>
</svg>
