<svg preserveAspectRatio="none" width="100%" height="100%" overflow="visible" style="display: block;" viewBox="0 0 20 21.25" fill="none" xmlns="http://www.w3.org/2000/svg">
<path id="Vector" d="M13.2114 2.29362C13.4183 1.85925 13.9303 1.67762 14.3566 1.88725C17.7851 3.58025 20 7.18175 20 11.0615C20 16.6786 15.5142 21.25 10 21.25C4.48575 21.25 0 16.6786 0 11.0615C0 7.19113 2.10862 3.70375 5.50175 1.9595C5.92462 1.74287 6.43887 1.914 6.65375 2.346C6.86625 2.77688 6.69712 3.302 6.27425 3.51862C3.46175 4.96475 1.71425 7.85475 1.71425 11.0615C1.71425 15.7156 5.43088 19.5034 10 19.5034C14.5691 19.5034 18.2857 15.7156 18.2857 11.0615C18.2857 7.84663 16.4502 4.86225 13.6091 3.46038C13.1829 3.24963 13.0046 2.72675 13.2114 2.29362ZM10.0006 0C10.4737 0 10.8578 0.39125 10.8578 0.87325V8.13675C10.8578 8.61888 10.4737 9.01013 10.0006 9.01013C9.52737 9.01013 9.14338 8.61888 9.14338 8.13675V0.87325C9.14338 0.39125 9.52737 0 10.0006 0Z" fill="var(--fill-0, #3F3F3F)"/>
</svg>
