<svg preserveAspectRatio="none" width="100%" height="100%" overflow="visible" style="display: block;" viewBox="0 0 17.1667 18.2083" fill="none" xmlns="http://www.w3.org/2000/svg">
<path id="Vector" d="M11.1465 2.10742C11.3482 1.68405 11.8495 1.50504 12.2686 1.71094H12.2695C15.1698 3.14329 17.0419 6.18819 17.042 9.46777C17.042 14.2155 13.2495 18.083 8.58301 18.083C3.91671 18.0828 0.125 14.2154 0.125 9.46777C0.125052 6.19656 1.90746 3.24682 4.77734 1.77148C5.19272 1.5587 5.69668 1.72824 5.90625 2.14941H5.90723C6.11374 2.56814 5.94958 3.0795 5.53516 3.29199L5.53613 3.29297C3.2348 4.47626 1.80376 6.84156 1.80371 9.46777C1.80371 13.2793 4.84679 16.3777 8.58301 16.3779C12.3194 16.3779 15.3633 13.2794 15.3633 9.46777C15.3632 6.83542 13.8592 4.39284 11.5352 3.24609C11.1178 3.03965 10.9452 2.52903 11.1465 2.10742ZM8.58398 0.125C9.04936 0.125072 9.42276 0.509166 9.42285 0.977539V7.03027C9.42285 7.49882 9.04943 7.88372 8.58398 7.88379C8.11839 7.88379 7.74414 7.49887 7.74414 7.03027V0.977539C7.74423 0.509111 8.11845 0.125 8.58398 0.125Z" fill="var(--fill-0, white)" stroke="var(--stroke-0, white)" stroke-width="0.25"/>
</svg>
