<svg preserveAspectRatio="none" width="100%" height="100%" overflow="visible" style="display: block;" viewBox="0 0 7.1 7.1" fill="none" xmlns="http://www.w3.org/2000/svg">
<path id="Vector" fill-rule="evenodd" clip-rule="evenodd" d="M0.55 3.55C0.55 3.15603 0.627598 2.76593 0.778362 2.40195C0.929126 2.03797 1.1501 1.70725 1.42868 1.42868C1.70726 1.1501 2.03797 0.929125 2.40195 0.778361C2.76593 0.627597 3.15604 0.55 3.55 0.55C3.94397 0.55 4.33407 0.627597 4.69805 0.778361C5.06203 0.929125 5.39274 1.1501 5.67132 1.42868C5.9499 1.70725 6.17088 2.03797 6.32164 2.40195C6.4724 2.76593 6.55 3.15603 6.55 3.55C6.55 3.94397 6.4724 4.33407 6.32164 4.69805C6.17088 5.06203 5.9499 5.39274 5.67132 5.67132C5.39274 5.9499 5.06203 6.17087 4.69805 6.32164C4.33407 6.4724 3.94397 6.55 3.55 6.55C3.15604 6.55 2.76593 6.4724 2.40195 6.32164C2.03797 6.17087 1.70726 5.9499 1.42868 5.67132C1.1501 5.39274 0.929126 5.06203 0.778362 4.69805C0.627598 4.33407 0.55 3.94397 0.55 3.55Z" stroke="var(--stroke-0, #DDDDDD)" stroke-opacity="0.5" stroke-width="1.1" stroke-linecap="round" stroke-linejoin="round"/>
</svg>
