<svg preserveAspectRatio="none" width="100%" height="100%" overflow="visible" style="display: block;" viewBox="0 0 6.99875 6.4625" fill="none" xmlns="http://www.w3.org/2000/svg">
<path id="Vector" d="M1.3125 2.625C0.58625 2.625 0 2.0375 0 1.31375C0 0.5875 0.58625 0 1.3125 0C2.0375 0 2.62375 0.5875 2.62375 1.31375C2.62375 2.0375 2.0375 2.625 1.3125 2.625ZM5.6875 2.625C4.96125 2.625 4.375 2.0375 4.375 1.31375C4.375 0.5875 4.96125 0 5.6875 0C6.4125 0 6.99875 0.5875 6.99875 1.31375C6.99875 2.0375 6.4125 2.625 5.6875 2.625ZM1.3125 6.4625C0.58625 6.4625 0 5.875 0 5.15125C0 4.425 0.58625 3.8375 1.3125 3.8375C2.0375 3.8375 2.62375 4.425 2.62375 5.15125C2.62375 5.875 2.0375 6.4625 1.3125 6.4625ZM4.375 5.15125C4.375 4.425 4.96125 3.8375 5.6875 3.8375C6.4125 3.8375 6.99875 4.425 6.99875 5.15125C6.99875 5.875 6.4125 6.4625 5.6875 6.4625C4.96125 6.4625 4.375 5.875 4.375 5.15125Z" fill="var(--fill-0, #DDDDDD)" fill-opacity="0.5"/>
</svg>
