<svg preserveAspectRatio="none" width="100%" height="100%" overflow="visible" style="display: block;" viewBox="0 0 17.4736 18.5417" fill="none" xmlns="http://www.w3.org/2000/svg">
<path id="Vector" d="M17.2559 11.6667L15.7976 10.2083C15.5893 10 15.4851 9.6875 15.4851 9.47917C15.4851 9.47917 15.4851 9.47917 15.4851 9.27083C15.4851 9.0625 15.4851 9.0625 15.4851 9.0625C15.4851 8.85417 15.5893 8.54167 15.7976 8.33333L17.2559 6.875C17.4643 6.66667 17.4643 6.35417 17.3601 6.04167L15.7976 3.33333C15.6934 3.125 15.2768 2.91667 15.0684 3.02083L13.0893 3.54167C12.7768 3.64583 12.4643 3.54167 12.2559 3.4375C12.0476 3.33333 11.5268 2.8125 11.4226 2.5L10.9018 0.520833C10.7976 0.208333 10.5893 0 10.2768 0H7.15176C6.83926 0 6.52676 0.208333 6.52676 0.520833L6.00592 2.5C5.90176 2.8125 5.69342 3.125 5.48509 3.22917C5.27676 3.33333 4.54759 3.54167 4.33926 3.54167L2.36009 3.02083C2.04759 2.91667 1.73509 3.125 1.63092 3.33333L0.0684223 6.04167C-0.0357444 6.25 -0.0357443 6.66667 0.172589 6.875L1.63092 8.33333C1.83926 8.54167 1.94342 8.85417 1.94342 9.0625C1.94342 9.0625 1.94342 9.0625 1.94342 9.27083C1.94342 9.47917 1.94342 9.47917 1.94342 9.47917C1.94342 9.6875 1.83926 10 1.63092 10.2083L0.172589 11.6667C-0.0357443 11.875 -0.0357444 12.1875 0.0684223 12.5L1.63092 15.2083C1.73509 15.4167 2.15176 15.625 2.36009 15.5208L4.33926 15C4.65176 14.8958 4.96426 15 5.17259 15.1042C5.38092 15.2083 5.90176 15.7292 6.00592 16.0417L6.52676 18.0208C6.63092 18.3333 6.83926 18.5417 7.15176 18.5417H10.2768C10.5893 18.5417 10.9018 18.3333 10.9018 18.0208L11.4226 16.0417C11.5268 15.7292 11.7351 15.4167 11.9434 15.3125C12.1518 15.2083 12.8809 15 13.0893 15L15.0684 15.5208C15.3809 15.625 15.6934 15.4167 15.7976 15.2083L17.3601 12.5C17.5684 12.2917 17.4643 11.875 17.2559 11.6667ZM8.81842 12.3958C7.04759 12.3958 5.69342 11.0417 5.69342 9.27083C5.69342 7.5 7.04759 6.14583 8.81842 6.14583C10.5893 6.14583 11.9434 7.5 11.9434 9.27083C11.9434 11.0417 10.4851 12.3958 8.81842 12.3958Z" fill="var(--fill-0, white)"/>
</svg>
