<svg preserveAspectRatio="none" width="100%" height="100%" overflow="visible" style="display: block;" viewBox="0 0 22.6249 22.6248" fill="none" xmlns="http://www.w3.org/2000/svg">
<path id="Union" fill-rule="evenodd" clip-rule="evenodd" d="M0 11.3125C0 5.06661 5.06525 0 11.3125 0C13.5648 0 15.6643 0.660412 17.4277 1.79573C17.8385 1.49955 18.3428 1.32501 18.8876 1.32501C20.2676 1.32501 21.3876 2.44501 21.3876 3.82501C21.3876 5.20501 20.2676 6.32501 18.8876 6.32501C17.5076 6.32501 16.3876 5.20501 16.3876 3.82501C16.3876 3.49107 16.4532 3.17235 16.5721 2.88104C15.0459 1.92685 13.2434 1.375 11.3125 1.375C5.82475 1.375 1.375 5.82589 1.375 11.3125C1.375 11.6067 1.38664 11.8961 1.41211 12.1797C1.44607 12.5578 1.16719 12.8918 0.789062 12.9258C0.410893 12.9597 0.0769347 12.6809 0.0429688 12.3027C0.0134396 11.9739 0 11.6432 0 11.3125ZM9.95866 15.8288L15.5524 12.1738C16.2399 11.7763 16.2399 10.785 15.5524 10.3875L9.95866 6.73379C9.27116 6.33504 8.41241 6.83254 8.41241 7.62629V14.935C8.41241 15.7288 9.27116 16.225 9.95866 15.8288ZM3.73499 16.3012C2.35499 16.3012 1.23499 17.4212 1.23499 18.8012C1.23499 20.1812 2.35499 21.3012 3.73499 21.3012C4.28049 21.3012 4.78536 21.1262 5.19649 20.8293C6.96051 21.965 9.06001 22.6248 11.3124 22.6248C17.5609 22.6248 22.6249 17.5608 22.6249 11.3123C22.6249 10.9795 22.6103 10.6527 22.581 10.326C22.547 9.94787 22.213 9.66905 21.8349 9.70294C21.4567 9.7369 21.1779 10.0709 21.2119 10.449C21.2375 10.7346 21.2499 11.0203 21.2499 11.3123C21.2499 16.8014 16.8015 21.2498 11.3124 21.2498C9.38107 21.2498 7.57788 20.6984 6.05095 19.7439C6.1696 19.4529 6.23499 19.1347 6.23499 18.8012C6.23499 17.4212 5.11499 16.3012 3.73499 16.3012Z" fill="var(--fill-0, #DDDDDD)" fill-opacity="0.5"/>
</svg>
