<svg preserveAspectRatio="none" width="100%" height="100%" overflow="visible" style="display: block;" viewBox="0 0 19.7397 19.8526" fill="none" xmlns="http://www.w3.org/2000/svg">
<path id="Vector" d="M18.1214 0.626311C18.4877 0.261311 19.0802 0.261311 19.4464 0.627561C19.8127 0.992561 19.8127 1.58756 19.4464 1.95381L17.4464 3.95381L19.1914 5.69756C19.9214 6.42756 19.9227 7.61631 19.1939 8.34756L17.4464 10.1013L19.1914 11.8463C19.9214 12.5776 19.9214 13.7663 19.1914 14.4963L17.4464 16.2451L19.4552 18.2526C19.8214 18.6188 19.8214 19.2138 19.4552 19.5801C19.2714 19.7613 19.0314 19.8526 18.7927 19.8526C18.5514 19.8526 18.3127 19.7613 18.1289 19.5788L16.1202 17.5701C15.3902 16.8401 15.3889 15.6513 16.1189 14.9201L17.8639 13.1726L16.1202 11.4263C15.3902 10.6963 15.3889 9.50881 16.1177 8.77756L17.8652 7.02381L16.1214 5.27881C15.7664 4.92381 15.5714 4.45381 15.5714 3.95256C15.5714 3.45131 15.7664 2.98006 16.1214 2.62631L18.1214 0.626311ZM0.274688 1.01819C0.553438 0.739436 0.964687 0.675687 1.30844 0.823187C1.33844 0.866937 1.37344 0.911936 1.41344 0.951936L12.8472 12.3857V17.8507C12.8472 19.0144 12.1409 19.3294 11.2747 18.5532L5.08094 12.9669C4.95219 12.9857 4.81969 12.9944 4.68469 12.9869L2.41844 12.8807C1.21719 12.8244 0.233438 11.7932 0.233438 10.5907V8.06944C0.233438 6.86569 1.21719 5.88194 2.42094 5.88194H3.81094L0.274688 2.34444C-0.0915625 1.97944 -0.0915625 1.38444 0.274688 1.01819ZM11.2752 0.426686C12.1402 -0.350814 12.8477 -0.0358138 12.8477 1.12794V9.73419L6.79019 3.67919L11.2752 0.426686Z" fill="var(--fill-0, #3F3F3F)"/>
</svg>
