<svg preserveAspectRatio="none" width="100%" height="100%" overflow="visible" style="display: block;" viewBox="0 0 17.8976 14" fill="none" xmlns="http://www.w3.org/2000/svg">
<g id="vector">
<path d="M10.0276 12.7273C10.0276 13.4302 9.45778 14 8.75487 14C8.05197 14 7.48215 13.4302 7.48215 12.7273C7.48215 12.0244 8.05197 11.4545 8.75487 11.4545C9.45778 11.4545 10.0276 12.0244 10.0276 12.7273Z" fill="white" fill-opacity="0.8"/>
<path d="M12.4332 10.4453C12.8256 10.1357 12.8971 9.55989 12.5273 9.22362C12.144 8.87496 11.7121 8.58132 11.2437 8.35252C10.5034 7.99084 9.69117 7.80048 8.86725 7.79555C8.04332 7.79062 7.22886 7.97126 6.48427 8.32405C6.01325 8.54724 5.57783 8.83569 5.19033 9.17973C4.81659 9.51156 4.88117 10.0882 5.26984 10.4024C5.65851 10.7166 6.22352 10.6447 6.62292 10.3443C6.82088 10.1954 7.03399 10.0664 7.25924 9.95965C7.7583 9.72319 8.30419 9.60212 8.85642 9.60542C9.40866 9.60872 9.95306 9.73631 10.4493 9.97873C10.6732 10.0881 10.8848 10.2197 11.0809 10.371C11.4767 10.6762 12.0408 10.7548 12.4332 10.4453Z" fill="white" fill-opacity="0.8"/>
<path d="M14.945 7.82757C15.3299 7.52397 15.3988 6.96213 15.0575 6.6103C14.3608 5.89219 13.5434 5.29843 12.6404 4.85728C11.471 4.28593 10.1878 3.98521 8.88628 3.97743C7.58472 3.96964 6.2981 4.25499 5.12187 4.81231C4.21367 5.24263 3.38927 5.82656 2.68404 6.53629C2.33852 6.88401 2.40074 7.44663 2.78195 7.75481C3.16316 8.06299 3.71847 7.99883 4.07304 7.66034C4.60435 7.1531 5.21472 6.73268 5.88198 6.41652C6.81739 5.97331 7.84058 5.74638 8.87566 5.75258C9.91074 5.75877 10.9311 5.99792 11.8612 6.45229C12.5246 6.7764 13.1299 7.20409 13.6551 7.71765C14.0056 8.06037 14.5601 8.13116 14.945 7.82757Z" fill="white" fill-opacity="0.8"/>
<path d="M17.5497 5.25244C17.9509 4.93597 18.0223 4.35118 17.6738 3.97743C16.74 2.97578 14.9929 1.74178 13.7578 1.13836C12.245 0.399275 10.5852 0.0102714 8.90151 0.000200661C7.21783 -0.00987006 5.5535 0.359251 4.03195 1.08018C2.78969 1.66879 1.17643 2.5455 0.230666 3.53591C-0.122232 3.90546 -0.0578723 4.49106 0.339506 4.81231C0.736885 5.13356 1.31639 5.06809 1.67526 4.70433C2.44221 3.92696 3.83314 3.22204 4.82429 2.75242C6.0948 2.15043 7.48455 1.84221 8.89044 1.85062C10.2963 1.85903 11.6823 2.18385 12.9455 2.801C13.931 3.28244 15.4577 4.342 16.2153 5.12849C16.5698 5.49651 17.1485 5.56891 17.5497 5.25244Z" fill="white" fill-opacity="0.6"/>
</g>
</svg>
