<svg preserveAspectRatio="none" width="100%" height="100%" overflow="visible" style="display: block;" viewBox="0 0 22.8125 22.8125" fill="none" xmlns="http://www.w3.org/2000/svg">
<path id="Vector" d="M21.875 10.4687H12.3437V0.9375C12.3437 0.42 11.9237 0 11.4062 0C10.8887 0 10.4687 0.42 10.4687 0.9375V10.4687H0.9375C0.42 10.4687 0 10.8887 0 11.4062C0 11.9237 0.42 12.3437 0.9375 12.3437H10.4687V21.875C10.4687 22.3925 10.8887 22.8125 11.4062 22.8125C11.9237 22.8125 12.3437 22.3925 12.3437 21.875V12.3437H21.875C22.3925 12.3437 22.8125 11.9237 22.8125 11.4062C22.8125 10.8887 22.3925 10.4687 21.875 10.4687Z" fill="var(--fill-0, #3F3F3F)"/>
</svg>
