<svg preserveAspectRatio="none" width="100%" height="100%" overflow="visible" style="display: block;" viewBox="0 0 18.25 18.25" fill="none" xmlns="http://www.w3.org/2000/svg">
<path id="Vector" d="M17.5 8.375H9.875V0.75C9.875 0.336 9.539 0 9.125 0C8.711 0 8.375 0.336 8.375 0.75V8.375H0.75C0.336 8.375 0 8.711 0 9.125C0 9.539 0.336 9.875 0.75 9.875H8.375V17.5C8.375 17.914 8.711 18.25 9.125 18.25C9.539 18.25 9.875 17.914 9.875 17.5V9.875H17.5C17.914 9.875 18.25 9.539 18.25 9.125C18.25 8.711 17.914 8.375 17.5 8.375Z" fill="var(--fill-0, #DDDDDD)"/>
</svg>
