<svg preserveAspectRatio="none" width="100%" height="100%" overflow="visible" style="display: block;" viewBox="0 0 15.4144 16.5154" fill="none" xmlns="http://www.w3.org/2000/svg">
<path id="Subtract" fill-rule="evenodd" clip-rule="evenodd" d="M8.25772 0C3.69711 0 0 3.69711 0 8.25772C0 12.8183 3.69711 16.5154 8.25773 16.5154H15.4144V13.0954C14.9531 13.0281 14.545 12.8843 14.1901 12.664C13.6792 12.3381 13.2608 11.9065 12.9349 11.3692L14.4015 10.5368C14.6041 10.8627 14.8463 11.1006 15.1281 11.2503C15.2217 11.2957 15.3172 11.3338 15.4144 11.3645V9.73068C14.9873 9.69102 14.6012 9.56336 14.2561 9.34772C13.8333 9.08347 13.4986 8.71793 13.252 8.25109C13.0142 7.78426 12.8953 7.26017 12.8953 6.67882C12.8953 6.07105 13.0186 5.52054 13.2652 5.02728C13.5118 4.52521 13.8774 4.12443 14.3618 3.82495C14.6711 3.63716 15.022 3.50825 15.4144 3.43821V0H8.25772ZM15.4144 5.17448C15.2864 5.24115 15.1734 5.32861 15.0753 5.43686C14.8199 5.71872 14.6921 6.08867 14.6921 6.5467C14.6921 7.02234 14.8155 7.4055 15.0621 7.69617C15.1635 7.80813 15.281 7.89785 15.4144 7.96534V5.17448ZM9.66525 8.83244C9.91188 9.1143 10.0352 9.49305 10.0352 9.9687C10.0352 10.4179 9.91188 10.7879 9.66525 11.0785C9.41862 11.3604 9.05748 11.5013 8.58184 11.5013C8.12381 11.5013 7.76707 11.3604 7.51163 11.0785C7.2562 10.7879 7.12848 10.4179 7.12848 9.9687C7.12848 9.6516 7.19013 9.37855 7.31345 9.14953C7.43676 8.91171 7.60853 8.72674 7.82873 8.59461C8.04894 8.46249 8.30438 8.39643 8.59505 8.39643C9.06188 8.39643 9.41862 8.54176 9.66525 8.83244ZM9.58597 5.27831C9.87665 5.41924 10.1233 5.65266 10.3259 5.97857L11.7792 5.14619C11.4621 4.60889 11.0481 4.18169 10.5373 3.86459C10.0264 3.53869 9.40541 3.37573 8.67432 3.37573C7.51164 3.37573 6.59117 3.79853 5.91294 4.64412C5.24351 5.4809 4.9088 6.70525 4.9088 8.31715C4.9088 9.84979 5.2259 11.0389 5.86009 11.8845C6.50309 12.7213 7.40153 13.1397 8.55541 13.1397C9.27769 13.1397 9.88105 12.9899 10.3655 12.6904C10.85 12.391 11.2155 11.9902 11.4621 11.4881C11.7088 10.986 11.8321 10.4355 11.8321 9.83657C11.8321 9.24642 11.7088 8.72233 11.4621 8.2643C11.2243 7.79747 10.894 7.43193 10.4712 7.16768C10.0484 6.90343 9.56395 6.77131 9.01784 6.77131C8.65671 6.77131 8.29557 6.85058 7.93443 7.00913C7.5821 7.16768 7.27822 7.40991 7.02278 7.73581C6.86206 7.94245 6.73874 8.18837 6.65283 8.47357V8.13218C6.66164 7.10162 6.84221 6.3309 7.19454 5.82002C7.54687 5.30914 8.04013 5.0537 8.67432 5.0537C9.00023 5.0537 9.30411 5.12857 9.58597 5.27831Z" fill="var(--fill-0, white)" fill-opacity="0.8"/>
</svg>
