<svg preserveAspectRatio="none" width="100%" height="100%" overflow="visible" style="display: block;" viewBox="0 0 7.14583 10.3542" fill="none" xmlns="http://www.w3.org/2000/svg">
<path id="Vector" fill-rule="evenodd" clip-rule="evenodd" d="M4.48642 8.83167H2.65825C2.41675 8.83167 2.22075 8.63567 2.22075 8.39417C2.22075 8.15267 2.41675 7.95667 2.65825 7.95667H4.48642C4.7285 7.95667 4.92392 8.15267 4.92392 8.39417C4.92392 8.63567 4.7285 8.83167 4.48642 8.83167ZM5.6875 0H1.45833C0.65275 0 0 0.65275 0 1.45833V8.89583C0 9.70142 0.65275 10.3542 1.45833 10.3542H5.6875C6.4925 10.3542 7.14583 9.70142 7.14583 8.89583V1.45833C7.14583 0.65275 6.4925 0 5.6875 0Z" fill="var(--fill-0, #D5D5D5)"/>
</svg>
