<svg preserveAspectRatio="none" width="100%" height="100%" overflow="visible" style="display: block;" viewBox="0 0 17.271 14.7496" fill="none" xmlns="http://www.w3.org/2000/svg">
<path id="Vector" fill-rule="evenodd" clip-rule="evenodd" d="M7.286 14.2531C8.063 14.9151 9.208 14.9151 9.986 14.2531C11.832 12.6801 15.044 9.842 16.174 8.262C16.277 8.1161 16.57 7.677 16.57 7.677C17.015 6.91 17.271 6.007 17.271 5.0391C17.271 2.256 15.145 0 12.521 0C10.915 0 9.495 0.847 8.636 2.144C7.776 0.847 6.356 0 4.749 0C2.126 0 0 2.256 0 5.0391C0 6.007 0.258 6.91 0.702 7.677C0.702 7.677 0.994 8.1161 1.098 8.262C2.227 9.842 5.439 12.6801 7.286 14.2531Z" fill="var(--fill-0, #D5D5D5)"/>
</svg>
