<svg preserveAspectRatio="none" width="100%" height="100%" overflow="visible" style="display: block;" viewBox="0 0 8.37289 9.33333" fill="none" xmlns="http://www.w3.org/2000/svg">
<path id="Vector" fill-rule="evenodd" clip-rule="evenodd" d="M4.78752 0H4.34364C3.93574 0 3.60384 0.332615 3.60384 0.739801V5.35024C3.22624 5.06545 2.75632 4.89453 2.24616 4.89453C1.00731 4.89453 0 5.88977 0 7.11393C0 8.33715 1.00731 9.33333 2.24616 9.33333C3.41374 9.33333 4.37489 8.44723 4.48095 7.32036C4.48734 7.2903 4.4916 7.25881 4.4916 7.22638V7.11393V0.887762H4.78752C6.62744 0.887762 7.48513 2.62351 7.48513 3.79654V4.60571C7.48513 4.85073 7.68399 5.04959 7.92901 5.04959C8.17403 5.04959 8.37289 4.85073 8.37289 4.60571V3.79654C8.37289 2.26557 7.23348 0 4.78752 0Z" fill="var(--fill-0, white)"/>
</svg>
