<svg preserveAspectRatio="none" width="100%" height="100%" overflow="visible" style="display: block;" viewBox="0 0 11.4992 14.918" fill="none" xmlns="http://www.w3.org/2000/svg">
<path id="Vector" fill-rule="evenodd" clip-rule="evenodd" d="M1.774 0L1.919 0.00589991C2.8277 0.0801999 3.547 0.8468 3.547 1.773V13.144C3.547 14.12 2.75 14.918 1.774 14.918C0.797 14.918 0 14.12 0 13.144V1.773C0 0.798 0.797 0 1.774 0ZM9.7252 0L9.8702 0.00589991C10.779 0.0801999 11.4992 0.8468 11.4992 1.773V13.144C11.4992 14.12 10.7012 14.918 9.7252 14.918C8.7492 14.918 7.9522 14.12 7.9522 13.144V1.773C7.9522 0.798 8.7492 0 9.7252 0Z" fill="var(--fill-0, #D5D5D5)"/>
</svg>
