<svg preserveAspectRatio="none" width="100%" height="100%" overflow="visible" style="display: block;" viewBox="0 0 17.4384 15.5" fill="none" xmlns="http://www.w3.org/2000/svg">
<path id="Vector" fill-rule="evenodd" clip-rule="evenodd" d="M14.91 0.146297L14.9943 0.218697L16.9973 2.2148C17.5487 2.7642 17.5831 3.6364 17.1008 4.2261L16.9975 4.3401L15.1795 6.1531C14.8862 6.4455 14.4113 6.4449 14.1188 6.1516C13.8529 5.885 13.8293 5.4683 14.0476 5.175L14.1203 5.0909L15.504 3.71L12.067 3.7101C11.2584 3.7101 10.5158 4.1441 10.1169 4.837L10.0368 4.9893L8.7121 7.7608L10.0352 10.5127C10.3842 11.2401 11.0946 11.7207 11.8911 11.7815L12.063 11.7881L15.504 11.788L14.1199 10.4071C13.8533 10.1412 13.8285 9.7245 14.0459 9.4306L14.1184 9.3464C14.3843 9.0798 14.801 9.055 15.0949 9.2724L15.1791 9.3449L16.9969 11.1578C17.5483 11.7072 17.5827 12.5785 17.1007 13.1678L16.9974 13.2817L14.9954 15.2807C14.7023 15.5734 14.2274 15.573 13.9348 15.2799C13.6687 15.0135 13.6448 14.5968 13.8629 14.3033L13.9356 14.2193L14.866 13.288L12.063 13.2881C10.6933 13.2881 9.4382 12.5419 8.7817 11.3534L8.683 11.162L7.875 9.48L7.0672 11.1615C6.4747 12.3965 5.2593 13.2043 3.9032 13.2819L3.688 13.2881H0.75C0.3358 13.2881 0 12.9523 0 12.5381C0 12.1584 0.2821 11.8446 0.6482 11.7949L0.75 11.7881H3.688C4.4951 11.7881 5.2353 11.3562 5.6348 10.6643L5.715 10.5122L7.0371 7.7608L5.7133 4.9895C5.3647 4.2601 4.6534 3.7777 3.8552 3.7167L3.683 3.7101H0.75C0.3358 3.7101 0 3.3743 0 2.9601C0 2.5804 0.2821 2.2666 0.6482 2.2169L0.75 2.2101H3.683C5.0589 2.2101 6.3183 2.9627 6.9731 4.16L7.0668 4.3429L7.875 6.035L8.6833 4.3427C9.2762 3.1021 10.4991 2.2902 11.8616 2.2157L12.067 2.2101L14.867 2.21L13.9355 1.2813C13.6421 0.988897 13.6413 0.513997 13.9336 0.220597C14.1994 -0.0461029 14.6161 -0.0711032 14.91 0.146297Z" fill="var(--fill-0, #D5D5D5)"/>
</svg>
